<?xml version="1.0" encoding="UTF-8"?>
<svg width="61px" height="62px" viewBox="0 0 61 62" version="1.1" xmlns="http://www.w3.org/2000/svg" xmlns:xlink="http://www.w3.org/1999/xlink">
    <title>logo1</title>
    <g id="页面-1" stroke="none" stroke-width="1" fill="none" fill-rule="evenodd">
        <g id="logo1" transform="translate(0.000000, 0.933231)">
            <path d="M16.6652538,2.33537939e-16 L44.3347462,1.58013034e-15 C50.129618,-9.18101232e-16 52.2309786,0.603366472 54.3494971,1.73636257 C56.4680156,2.86935868 58.1306413,4.53198441 59.2636374,6.65050293 C60.3966335,8.76902145 61,10.870382 61,16.6652538 L61,43.7486543 C61,49.5435261 60.3966335,51.6448866 59.2636374,53.7634051 C58.1306413,55.8819237 56.4680156,57.5445494 54.3494971,58.6775455 C52.2309786,59.8105416 50.129618,60.4139081 44.3347462,60.4139081 L16.6652538,60.4139081 C10.870382,60.4139081 8.76902145,59.8105416 6.65050293,58.6775455 C4.53198441,57.5445494 2.86935868,55.8819237 1.73636257,53.7634051 C0.603366472,51.6448866 1.20654337e-15,49.5435261 -2.0765638e-15,43.7486543 L4.48864133e-16,16.6652538 C-2.60802988e-16,10.870382 0.603366472,8.76902145 1.73636257,6.65050293 C2.86935868,4.53198441 4.53198441,2.86935868 6.65050293,1.73636257 C8.76902145,0.603366472 10.870382,-1.35692268e-16 16.6652538,2.33537939e-16 Z" id="矩形" fill="#232323"></path>
            <path d="M26.3015802,49.2682276 C27.9341479,48.3975249 29.4782848,47.4996127 30.9339909,46.5744911 C32.389697,45.6493694 33.7841819,44.710643 35.1174455,43.7583119 C35.443959,43.4862173 35.7160536,43.275344 35.9337293,43.1256919 C36.151405,42.9760399 36.3282664,42.8603997 36.4643137,42.7787713 C36.6275705,42.6155145 36.5731516,42.5406885 36.301057,42.5542933 C36.0289624,42.567898 35.4983779,42.642724 34.7093035,42.7787713 C34.0562765,42.8603997 33.5188896,42.921621 33.097143,42.9624352 C32.6753964,43.0032494 32.3216734,43.0100517 32.035974,42.9828423 C31.7502747,42.9556328 31.5257967,42.9012139 31.3625399,42.8195855 C31.1992831,42.7379571 31.0360264,42.6291193 30.8727696,42.493072 C30.4646277,42.1665584 30.4918372,41.6767882 30.954398,41.0237611 C31.4169588,40.3707341 32.7774318,39.010261 35.0358171,36.942342 C35.9881482,36.0716393 36.5119303,35.5206477 36.6071634,35.2893673 C36.7023965,35.0580869 36.4371043,35.0920987 35.8112867,35.3914028 C34.5052326,35.8811731 33.301214,36.4321646 32.1992308,37.0443775 C31.0972477,37.6565904 30.0700905,38.3164198 29.1177594,39.0238658 C28.6551986,39.568055 28.3558945,40.0306158 28.2198472,40.4115482 C28.0837999,40.7924807 28.0429857,41.2686463 28.0974046,41.8400449 C28.3150803,42.7107477 28.308278,43.3841818 28.0769975,43.8603474 C27.8457171,44.3365129 27.4579823,44.5745957 26.9137931,44.5745957 C26.4512323,44.5745957 26.0907069,44.3705248 25.832217,43.9623828 C25.5737272,43.5542409 25.2948302,42.7515619 24.9955261,41.5543456 C24.8050599,40.6292239 24.6486055,39.6836952 24.5261629,38.7177593 C24.4037204,37.7518235 24.3016849,36.7518758 24.2200565,35.7179163 C24.8458741,35.1193082 25.5669248,34.5138977 26.3832086,33.9016848 C27.1994924,33.289472 28.0837999,32.6432473 29.036131,31.9630108 C29.5259013,31.6637067 29.8864267,31.4120192 30.1177071,31.2079482 C30.3489875,31.0038773 30.4102088,30.9018418 30.3013709,30.9018418 C29.1041547,31.2827742 27.9749621,31.6160901 26.9137931,31.9017895 C25.8526241,32.1874888 24.8050599,32.4799905 23.7711004,32.7792946 C23.5806342,32.6976662 23.4173774,32.5752236 23.2813301,32.4119669 C23.1452828,32.2487101 23.036445,32.0990581 22.9548166,31.9630108 C22.9548166,31.8269635 23.0772592,31.6296949 23.3221443,31.371205 C23.5670295,31.1127151 24.0023808,30.793004 24.6281984,30.4120715 C25.0635498,30.1943958 25.532913,29.881487 26.036288,29.4733451 C26.539663,29.0652032 27.1450735,28.6298518 27.8525195,28.167291 C29.5667155,26.9156558 30.4918372,26.2218146 30.6278845,26.0857673 C30.8727696,25.8953011 30.6959081,25.8816963 30.0973,26.0449531 C28.9545026,26.2626288 27.9341479,26.2558264 27.0362357,26.024546 C26.1383235,25.7932656 25.5397153,25.3647166 25.2404113,24.738899 C25.0499451,24.3579665 25.0499451,24.0858719 25.2404113,23.9226152 C25.4308775,23.7593584 25.8390194,23.7457537 26.464837,23.881801 C27.5532154,24.0450577 29.3082256,23.8137773 31.7298676,23.1879597 C32.8454555,22.8886557 33.9338339,22.596154 34.9950029,22.3104546 C36.0561718,22.0247553 37.0901313,21.7322536 38.0968814,21.4329495 C38.9675841,20.9703887 39.7090419,20.5690492 40.3212548,20.2289309 C40.9334676,19.8888126 41.4300403,19.6099157 41.8109727,19.39224 C41.6205065,19.39224 41.2259693,19.4330542 40.6273612,19.5146826 C38.0968814,19.8411961 35.4235519,20.2901522 32.6073727,20.8615509 C29.7911936,21.4329495 26.7913505,22.0995813 23.6078437,22.8614462 C20.9413165,23.5961016 19.1590969,23.9906388 18.2611847,24.0450577 C17.7714144,24.0722672 17.2884464,24.0382554 16.8122809,23.9430223 C16.3361153,23.8477892 15.8667521,23.67773 15.4041913,23.4328449 C14.7783737,23.0519124 14.2886034,22.6301658 13.9348804,22.167605 C13.7172048,21.7866725 13.7036,21.5553921 13.8940662,21.4737637 C14.0845325,21.3921353 14.6559311,21.4329495 15.6082623,21.5962063 C16.6150123,21.6506252 17.5129245,21.6506252 18.3019988,21.5962063 C19.8257286,21.2152738 21.4446915,20.8207367 23.1588876,20.4125948 C24.8730836,20.0044529 26.6961174,19.5691015 28.6279891,19.1065407 C32.2196379,18.4535136 35.3419235,17.9229291 37.9948459,17.5147872 C40.6477683,17.1066453 42.8721417,16.8345507 44.6679661,16.6985034 C45.0488985,16.7801318 45.4230286,16.9093767 45.7903563,17.0862382 C46.1576841,17.2630997 46.5046047,17.5011825 46.8311182,17.8004866 C47.1032128,18.0181622 47.2392601,18.2086285 47.2392601,18.3718852 C47.2392601,18.535142 47.1304223,18.7392129 46.9127466,18.9840981 C46.6678614,19.5010778 46.2461148,19.9092197 45.6475067,20.2085238 C45.0488985,20.5078279 44.2054053,20.752713 43.1170268,20.9431792 C42.3551619,21.1608549 41.4232379,21.4125424 40.3212548,21.6982418 C39.2192716,21.9839411 37.9336246,22.3444665 36.4643137,22.7798178 L36.4643137,23.1879597 C36.5187327,23.4328449 36.4983256,23.6165087 36.4030925,23.7389513 C36.3078593,23.8613939 36.1105908,24.0586625 35.8112867,24.3307571 C34.3147664,25.3102977 33.022317,26.1810004 31.9339386,26.9428653 C30.8455601,27.7047302 29.947648,28.3441525 29.240202,28.8611323 C29.6211344,28.7522944 30.1041023,28.6230495 30.6891058,28.4733974 C31.2741092,28.3237454 31.9747528,28.167291 32.7910366,28.0040342 C33.3896447,27.813568 33.8998221,27.6707184 34.3215687,27.5754852 C34.7433154,27.4802521 35.0970384,27.4258332 35.3827377,27.4122285 C35.668437,27.3986238 35.9133222,27.4190308 36.1173931,27.4734498 C36.3214641,27.5278687 36.5187327,27.6231018 36.7091989,27.7591491 C37.3350165,28.1400816 37.4982732,28.5278164 37.1989692,28.9223535 C36.8996651,29.3168907 36.0833813,29.7862539 34.7501177,30.3304431 C33.6617393,30.8474229 32.4781278,31.4664381 31.1992831,32.1874888 C29.9204385,32.9085395 28.532756,33.7452304 27.0362357,34.6975615 C26.2743708,35.1601224 25.8390194,35.5002406 25.7301816,35.7179163 C25.7029721,35.8811731 25.8662289,36.3437339 26.2199519,37.1055988 C26.3559992,37.4049029 26.4716394,37.6633927 26.5668725,37.8810684 C26.6621056,38.0987441 26.7233269,38.2756056 26.7505363,38.4116529 C26.8865836,38.5477002 27.0906546,38.4116529 27.3627492,38.003511 C29.2129925,36.643038 31.029224,35.5342524 32.8114437,34.6771544 C34.5936633,33.8200564 36.3826854,33.2146459 38.1785098,32.860923 C39.7022395,32.7520851 40.4641044,33.1874365 40.4641044,34.1669771 C40.4641044,34.5207 40.1239862,35.0648893 39.4437497,35.7995447 C38.7635132,36.5342001 37.5799016,37.5817644 35.8929151,38.9422374 C35.5119826,39.2415414 35.2262833,39.4796242 35.0358171,39.6564857 C34.8453508,39.8333472 34.7093035,39.9625921 34.6276752,40.0442205 C34.5460468,40.1258489 34.5188373,40.1802678 34.5460468,40.2074773 C34.5732562,40.2346868 34.6276752,40.2482915 34.7093035,40.2482915 C37.1853644,39.8401496 38.9743865,39.6972999 40.0763696,39.8197425 C41.1783528,39.9421851 41.7293444,40.3843388 41.7293444,41.1462037 C41.7293444,41.4455077 41.6205065,41.7312071 41.4028308,42.0033017 C41.1851551,42.2753963 40.8314322,42.5747004 40.3416619,42.9012139 C39.8518916,43.2277274 39.2056669,43.6018575 38.4029878,44.0236041 C37.6003087,44.4453508 36.600361,44.9419234 35.4031448,45.5133221 L24.9955261,50.206954 L24.7098268,50.206954 L24.9547119,49.9620689 C25.0907592,49.8804405 25.2744231,49.7852074 25.5057035,49.6763696 C25.7369839,49.5675317 26.0022762,49.4314844 26.3015802,49.2682276 Z M27.9341479,15.963848 C28.7776411,15.4740777 29.4578777,15.052331 29.9748574,14.6986081 C30.4918372,14.3448851 30.8591649,14.0999999 31.0768406,13.9639526 L30.7911412,13.8006959 C28.886479,12.4946418 27.6076343,11.4334728 26.9546073,10.617189 C26.9546073,10.2362565 27.3355397,10.1206163 28.0974046,10.2702684 C28.8592695,10.4199204 30.1381142,10.8348647 31.9339386,11.5151012 C32.6958035,11.8416147 33.301214,12.127314 33.7501701,12.3721992 C34.1991262,12.6170843 34.5256397,12.8415624 34.7297106,13.0456333 C34.9337816,13.2497043 35.0222123,13.4605776 34.9950029,13.6782533 C34.9677934,13.895929 34.8725603,14.1408141 34.7093035,14.4129087 C34.5460468,14.6577939 34.3011616,14.8754695 33.9746481,15.0659358 C33.6481346,15.256402 33.1447596,15.4332635 32.464523,15.5965203 L25.9342525,17.3515305 L25.7301816,17.3515305 L25.9342525,17.1882737 L27.9341479,15.963848 Z" id="形状" fill="#FFFFFF" fill-rule="nonzero"></path>
        </g>
    </g>
</svg>