<?xml version="1.0" encoding="UTF-8"?>
<svg width="283px" height="283px" viewBox="0 0 283 283" version="1.1" xmlns="http://www.w3.org/2000/svg" xmlns:xlink="http://www.w3.org/1999/xlink">
    <title>言</title>
    <g id="页面-1" stroke="none" stroke-width="1" fill="none" fill-rule="evenodd">
        <g id="言" transform="translate(0.249395, 0.700000)" fill="#4B4B4B" fill-rule="nonzero">
            <path d="M125.53753,38 C136.17837,38 144.824052,39.9120258 151.474576,43.7360775 C158.125101,47.5601291 161.450363,52.5480226 161.450363,58.6997579 C161.450363,64.8514931 159.039548,67.9273608 154.217918,67.9273608 C149.063761,67.9273608 142.122276,64.1033091 133.393462,56.4552058 C124.664649,48.8071025 120.300242,43.5698144 120.300242,40.7433414 C120.300242,38.9144471 122.046005,38 125.53753,38 Z M219.309927,70.1719128 C225.960452,70.1719128 231.779661,71.5851493 236.767554,74.4116223 C241.755448,77.2380952 244.249395,79.9814366 244.249395,82.6416465 C244.249395,86.299435 239.926554,88.1283293 231.280872,88.1283293 C229.119451,88.1283293 225.336965,87.8373688 219.933414,87.2554479 C214.529863,86.673527 206.424536,86.3825666 195.617433,86.3825666 C184.810331,86.3825666 163.611784,88.0451977 132.021792,91.37046 C100.4318,94.6957224 79.8151735,97.6053269 70.1719128,100.099274 C65.3502825,101.429379 60.8611784,102.094431 56.7046005,102.094431 C52.5480226,102.094431 48.3498789,100.681195 44.1101695,97.8547215 C39.87046,95.0282486 37.7506053,92.9083939 37.7506053,91.4951574 C37.7506053,90.0819209 39.9120258,89.3753027 44.2348668,89.3753027 C53.7118644,89.2090395 78.9007264,86.8813559 119.801453,82.3922518 C160.702179,77.9031477 186.182002,74.7441485 196.24092,72.9152542 C206.299839,71.08636 213.989508,70.1719128 219.309927,70.1719128 Z M162.198547,110.324455 C167.851493,110.324455 172.091203,111.280468 174.917676,113.192494 C177.744149,115.10452 179.157385,116.725585 179.157385,118.05569 C179.157385,119.385795 178.118241,120.466505 176.039952,121.297821 C173.961663,122.129136 168.267151,123.002018 158.956416,123.916465 C149.645682,124.830912 140.127119,125.911622 130.400726,127.158596 C120.674334,128.405569 115.561743,129.029056 115.062954,129.029056 C111.903955,129.029056 108.578692,128.073043 105.087167,126.161017 C101.595642,124.248991 99.8498789,122.711057 99.8498789,121.547215 C99.8498789,120.383374 102.135997,119.676755 106.708232,119.427361 C111.280468,119.177966 118.014124,118.263519 126.909201,116.684019 C135.804278,115.10452 142.995157,113.649718 148.48184,112.319613 C153.968523,110.989508 158.540759,110.324455 162.198547,110.324455 Z M163.694915,142.246973 C169.015335,142.246973 172.922518,143.078289 175.416465,144.74092 C177.910412,146.403551 179.157385,147.983051 179.157385,149.479419 C179.157385,150.975787 177.785714,152.264326 175.042373,153.345036 C172.299031,154.425747 167.602098,155.298628 160.951574,155.96368 L133.767554,158.707022 C122.129136,160.037127 114.771994,160.702179 111.696126,160.702179 C108.620258,160.702179 105.25343,159.663035 101.595642,157.584746 C97.9378531,155.506457 96.1089588,153.843826 96.1089588,152.596852 C96.1089588,151.349879 98.3950767,150.601695 102.967312,150.3523 C107.539548,150.102906 114.730428,149.354722 124.539952,148.107748 C134.349475,146.860775 141.956013,145.572236 147.359564,144.242131 C152.763115,142.912026 158.208232,142.246973 163.694915,142.246973 Z M99.3510896,186.389831 C111.322034,185.891041 125.579096,184.311542 142.122276,181.651332 C158.665456,178.991122 167.726796,177.203793 169.306295,176.289346 C170.885795,175.374899 172.50686,174.917676 174.169492,174.917676 C177.661017,174.917676 183.064568,177.203793 190.380145,181.776029 C197.695722,186.348265 201.353511,190.047619 201.353511,192.874092 C201.353511,194.37046 199.940274,195.991525 197.113801,197.737288 C194.287328,199.483051 190.878935,202.849879 186.88862,207.837772 C182.898305,212.825666 180.903148,216.275626 180.903148,218.187651 C180.903148,220.099677 181.401937,221.554479 182.399516,222.552058 C183.397094,223.549637 183.895884,224.588781 183.895884,225.669492 C183.895884,226.750202 183.189266,227.706215 181.776029,228.53753 C180.362793,229.368846 178.492333,229.784504 176.164649,229.784504 C159.7046,229.784504 137.342211,230.865214 109.077482,233.026634 C108.578692,240.342211 106.999193,244 104.338983,244 C101.678773,244 99.7667474,240.674738 98.6029056,234.024213 C96.1089588,221.388216 93.8644068,211.952785 91.8692494,205.717918 C89.874092,199.483051 87.8373688,195.035513 85.7590799,192.375303 C83.680791,189.715093 82.6416465,187.719935 82.6416465,186.389831 C82.6416465,184.22841 84.1795803,183.1477 87.2554479,183.1477 C90.3313156,183.1477 94.3631961,184.22841 99.3510896,186.389831 Z M108.828087,223.300242 C141.249395,220.806295 158.748588,218.935835 161.325666,217.688862 C163.902744,216.441889 166.022599,212.991929 167.68523,207.338983 C169.347861,201.686037 170.179177,197.778854 170.179177,195.617433 C170.179177,191.294592 166.853914,189.133172 160.20339,189.133172 C158.374496,189.133172 151.100484,189.673527 138.381356,190.754237 C125.662228,191.834948 114.397902,193.040355 104.588378,194.37046 C106.084746,201.353511 107.497982,210.996772 108.828087,223.300242 Z"></path>
        </g>
    </g>
</svg>