<?xml version="1.0" encoding="UTF-8"?>
<svg width="45px" height="54px" viewBox="0 0 45 54" version="1.1" xmlns="http://www.w3.org/2000/svg" xmlns:xlink="http://www.w3.org/1999/xlink">
    <title>logo0</title>
    <g id="页面-1" stroke="none" stroke-width="1" fill="none" fill-rule="evenodd">
        <g id="logo0" transform="translate(0.467600, 0.933231)" fill="#000000" fill-rule="nonzero">
            <path d="M16.5924,51.6807692 C18.7524,50.5287692 20.7954,49.3407692 22.7214,48.1167692 C24.6474,46.8927692 26.4924,45.6507692 28.2564,44.3907692 C28.6884,44.0307692 29.0484,43.7517692 29.3364,43.5537692 C29.6244,43.3557692 29.8584,43.2027692 30.0384,43.0947692 C30.2544,42.8787692 30.1824,42.7797692 29.8224,42.7977692 C29.4624,42.8157692 28.7604,42.9147692 27.7164,43.0947692 C26.8524,43.2027692 26.1414,43.2837692 25.5834,43.3377692 C25.0254,43.3917692 24.5574,43.4007692 24.1794,43.3647692 C23.8014,43.3287692 23.5044,43.2567692 23.2884,43.1487692 C23.0724,43.0407692 22.8564,42.8967692 22.6404,42.7167692 C22.1004,42.2847692 22.1364,41.6367692 22.7484,40.7727692 C23.3604,39.9087692 25.1604,38.1087692 28.1484,35.3727692 C29.4084,34.2207692 30.1014,33.4917692 30.2274,33.1857692 C30.3534,32.8797692 30.0024,32.9247692 29.1744,33.3207692 C27.4464,33.9687692 25.8534,34.6977692 24.3954,35.5077692 C22.9374,36.3177692 21.5784,37.1907692 20.3184,38.1267692 C19.7064,38.8467692 19.3104,39.4587692 19.1304,39.9627692 C18.9504,40.4667692 18.8964,41.0967692 18.9684,41.8527692 C19.2564,43.0047692 19.2474,43.8957692 18.9414,44.5257692 C18.6354,45.1557692 18.1224,45.4707692 17.4024,45.4707692 C16.7904,45.4707692 16.3134,45.2007692 15.9714,44.6607692 C15.6294,44.1207692 15.2604,43.0587692 14.8644,41.4747692 C14.6124,40.2507692 14.4054,38.9997692 14.2434,37.7217692 C14.0814,36.4437692 13.9464,35.1207692 13.8384,33.7527692 C14.6664,32.9607692 15.6204,32.1597692 16.7004,31.3497692 C17.7804,30.5397692 18.9504,29.6847692 20.2104,28.7847692 C20.8584,28.3887692 21.3354,28.0557692 21.6414,27.7857692 C21.9474,27.5157692 22.0284,27.3807692 21.8844,27.3807692 C20.3004,27.8847692 18.8064,28.3257692 17.4024,28.7037692 C15.9984,29.0817692 14.6124,29.4687692 13.2444,29.8647692 C12.9924,29.7567692 12.7764,29.5947692 12.5964,29.3787692 C12.4164,29.1627692 12.2724,28.9647692 12.1644,28.7847692 C12.1644,28.6047692 12.3264,28.3437692 12.6504,28.0017692 C12.9744,27.6597692 13.5504,27.2367692 14.3784,26.7327692 C14.9544,26.4447692 15.5754,26.0307692 16.2414,25.4907692 C16.9074,24.9507692 17.7084,24.3747692 18.6444,23.7627692 C20.9124,22.1067692 22.1364,21.1887692 22.3164,21.0087692 C22.6404,20.7567692 22.4064,20.7387692 21.6144,20.9547692 C20.1024,21.2427692 18.7524,21.2337692 17.5644,20.9277692 C16.3764,20.6217692 15.5844,20.0547692 15.1884,19.2267692 C14.9364,18.7227692 14.9364,18.3627692 15.1884,18.1467692 C15.4404,17.9307692 15.9804,17.9127692 16.8084,18.0927692 C18.2484,18.3087692 20.5704,18.0027692 23.7744,17.1747692 C25.2504,16.7787692 26.6904,16.3917692 28.0944,16.0137692 C29.4984,15.6357692 30.8664,15.2487692 32.1984,14.8527692 C33.3504,14.2407692 34.3314,13.7097692 35.1414,13.2597692 C35.9514,12.8097692 36.6084,12.4407692 37.1124,12.1527692 C36.8604,12.1527692 36.3384,12.2067692 35.5464,12.3147692 C32.1984,12.7467692 28.6614,13.3407692 24.9354,14.0967692 C21.2094,14.8527692 17.2404,15.7347692 13.0284,16.7427692 C9.5004,17.7147692 7.1424,18.2367692 5.9544,18.3087692 C5.3064,18.3447692 4.6674,18.2997692 4.0374,18.1737692 C3.4074,18.0477692 2.7864,17.8227692 2.1744,17.4987692 C1.3464,16.9947692 0.6984,16.4367692 0.2304,15.8247692 C-0.0576,15.3207692 -0.0756,15.0147692 0.1764,14.9067692 C0.4284,14.7987692 1.1844,14.8527692 2.4444,15.0687692 C3.7764,15.1407692 4.9644,15.1407692 6.0084,15.0687692 C8.0244,14.5647692 10.1664,14.0427692 12.4344,13.5027692 C14.7024,12.9627692 17.1144,12.3867692 19.6704,11.7747692 C24.4224,10.9107692 28.5534,10.2087692 32.0634,9.66876923 C35.5734,9.12876923 38.5164,8.76876923 40.8924,8.58876923 C41.3964,8.69676923 41.8914,8.86776923 42.3774,9.10176923 C42.8634,9.33576923 43.3224,9.65076923 43.7544,10.0467692 C44.1144,10.3347692 44.2944,10.5867692 44.2944,10.8027692 C44.2944,11.0187692 44.1504,11.2887692 43.8624,11.6127692 C43.5384,12.2967692 42.9804,12.8367692 42.1884,13.2327692 C41.3964,13.6287692 40.2804,13.9527692 38.8404,14.2047692 C37.8324,14.4927692 36.5994,14.8257692 35.1414,15.2037692 C33.6834,15.5817692 31.9824,16.0587692 30.0384,16.6347692 L30.0384,17.1747692 C30.1104,17.4987692 30.0834,17.7417692 29.9574,17.9037692 C29.8314,18.0657692 29.5704,18.3267692 29.1744,18.6867692 C27.1944,19.9827692 25.4844,21.1347692 24.0444,22.1427692 C22.6044,23.1507692 21.4164,23.9967692 20.4804,24.6807692 C20.9844,24.5367692 21.6234,24.3657692 22.3974,24.1677692 C23.1714,23.9697692 24.0984,23.7627692 25.1784,23.5467692 C25.9704,23.2947692 26.6454,23.1057692 27.2034,22.9797692 C27.7614,22.8537692 28.2294,22.7817692 28.6074,22.7637692 C28.9854,22.7457692 29.3094,22.7727692 29.5794,22.8447692 C29.8494,22.9167692 30.1104,23.0427692 30.3624,23.2227692 C31.1904,23.7267692 31.4064,24.2397692 31.0104,24.7617692 C30.6144,25.2837692 29.5344,25.9047692 27.7704,26.6247692 C26.3304,27.3087692 24.7644,28.1277692 23.0724,29.0817692 C21.3804,30.0357692 19.5444,31.1427692 17.5644,32.4027692 C16.5564,33.0147692 15.9804,33.4647692 15.8364,33.7527692 C15.8004,33.9687692 16.0164,34.5807692 16.4844,35.5887692 C16.6644,35.9847692 16.8174,36.3267692 16.9434,36.6147692 C17.0694,36.9027692 17.1504,37.1367692 17.1864,37.3167692 C17.3664,37.4967692 17.6364,37.3167692 17.9964,36.7767692 C20.4444,34.9767692 22.8474,33.5097692 25.2054,32.3757692 C27.5634,31.2417692 29.9304,30.4407692 32.3064,29.9727692 C34.3224,29.8287692 35.3304,30.4047692 35.3304,31.7007692 C35.3304,32.1687692 34.8804,32.8887692 33.9804,33.8607692 C33.0804,34.8327692 31.5144,36.2187692 29.2824,38.0187692 C28.7784,38.4147692 28.4004,38.7297692 28.1484,38.9637692 C27.8964,39.1977692 27.7164,39.3687692 27.6084,39.4767692 C27.5004,39.5847692 27.4644,39.6567692 27.5004,39.6927692 C27.5364,39.7287692 27.6084,39.7467692 27.7164,39.7467692 C30.9924,39.2067692 33.3594,39.0177692 34.8174,39.1797692 C36.2754,39.3417692 37.0044,39.9267692 37.0044,40.9347692 C37.0044,41.3307692 36.8604,41.7087692 36.5724,42.0687692 C36.2844,42.4287692 35.8164,42.8247692 35.1684,43.2567692 C34.5204,43.6887692 33.6654,44.1837692 32.6034,44.7417692 C31.5414,45.2997692 30.2184,45.9567692 28.6344,46.7127692 L14.8644,52.9227692 L14.4864,52.9227692 L14.8104,52.5987692 C14.9904,52.4907692 15.2334,52.3647692 15.5394,52.2207692 C15.8454,52.0767692 16.1964,51.8967692 16.5924,51.6807692 Z M18.7524,7.61676923 C19.8684,6.96876923 20.7684,6.41076923 21.4524,5.94276923 C22.1364,5.47476923 22.6224,5.15076923 22.9104,4.97076923 L22.5324,4.75476923 C20.0124,3.02676923 18.3204,1.62276923 17.4564,0.542769231 C17.4564,0.0387692308 17.9604,-0.114230769 18.9684,0.0837692308 C19.9764,0.281769231 21.6684,0.830769231 24.0444,1.73076923 C25.0524,2.16276923 25.8534,2.54076923 26.4474,2.86476923 C27.0414,3.18876923 27.4734,3.48576923 27.7434,3.75576923 C28.0134,4.02576923 28.1304,4.30476923 28.0944,4.59276923 C28.0584,4.88076923 27.9324,5.20476923 27.7164,5.56476923 C27.5004,5.88876923 27.1764,6.17676923 26.7444,6.42876923 C26.3124,6.68076923 25.6464,6.91476923 24.7464,7.13076923 L16.1064,9.45276923 L15.8364,9.45276923 L16.1064,9.23676923 L18.7524,7.61676923 Z" id="形状"></path>
        </g>
    </g>
</svg>